<svg xmlns="http://www.w3.org/2000/svg" xmlns:xlink="http://www.w3.org/1999/xlink" version="1.1" width="1000" height="1000" viewBox="0 0 1000 1000" xml:space="preserve">
<desc>Created with Fabric.js 3.5.0</desc>
<defs>
</defs>
<rect x="0" y="0" width="100%" height="100%" fill="#ffffff"/>
<g transform="matrix(0.947 0 0 0.947 551.198 459.2085)" id="337621">
<g style="" vector-effect="non-scaling-stroke">
		<g transform="matrix(0.096 0 0 0.096 -118.3345 136.4187)" id="_2921421995696">
<path style="stroke: none; stroke-width: 1; stroke-dasharray: none; stroke-linecap: butt; stroke-dashoffset: 0; stroke-linejoin: miter; stroke-miterlimit: 4; is-custom-font: none; font-file-url: none; fill: rgb(206,206,206); fill-rule: evenodd; opacity: 1;" transform=" translate(-4267.3488, -5671.0276)" d="M 3360.64 4326.67 l 0 130.23 l -80.92 8.32 c 121.98 24.04 43.06 0.07 75.36 46.13 l 70.19 1456.08 c -11.13 72.41 36.24 782.79 54.65 905.73 l 68.99 794.43 c 29.34 101.54 -52.24 59.89 54.5 73.12 l 215.79 -1.48 c 96.01 -164.02 350.66 -2770.5 350.66 -3093.52 c 69.2 99.6 152.59 610.87 194.24 776.81 l 494.85 2175.88 c 26.8 108.74 12.04 120.47 93.15 159.67 l 188.81 8.21 c 152.08 7.22 108.35 -47.54 107.91 -369.24 c -0.26 -186.74 -6.35 -313.82 -23.05 -462.51 c -38.42 -342.23 5.44 -635.11 -38.29 -959.74 c -36.44 -270.52 -53.46 -614.89 -92.15 -878.91 c -28.15 -192.13 -88.21 -737.56 -143.24 -856.56 c -482.18 36.97 -619.54 235.46 -667.49 -110.4 l -99.96 -520.52 l -514.03 -33.22 l -10.15 719.47 c -124.52 10.52 -210.19 -8.07 -299.83 32 z" stroke-linecap="round"/>
</g>
		<g transform="matrix(0.096 0 0 0.096 -306.3692 136.8817)" id="_2921421995696">
<path style="stroke: none; stroke-width: 1; stroke-dasharray: none; stroke-linecap: butt; stroke-dashoffset: 0; stroke-linejoin: miter; stroke-miterlimit: 4; is-custom-font: none; font-file-url: none; fill: rgb(254,107,56); fill-rule: evenodd; opacity: 1;" transform=" translate(-2308.6548, -5675.8507)" d="M 1418.53 6396.51 c 0 402.56 -18.72 299.21 1078.95 299.21 c 136.9 0 601.99 58.58 661.92 -39.41 c 73.15 -119.63 -35.77 -518.24 39.4 -656.35 l -32.15 -165.72 c -23.04 -1333.74 238.47 -1173.53 -642.19 -1170.78 c -186.24 0.59 -441.85 26.3 -593.42 -20.94 c -146.85 6.72 -354.67 -27.13 -470.67 30.15 c -94.61 220.17 46.5 1516.09 -41.84 1723.83 z" stroke-linecap="round"/>
</g>
		<g transform="matrix(0.096 0 0 0.096 46.185 118.876)" id="_2921421995696">
<path style="stroke: none; stroke-width: 1; stroke-dasharray: none; stroke-linecap: butt; stroke-dashoffset: 0; stroke-linejoin: miter; stroke-miterlimit: 4; is-custom-font: none; font-file-url: none; fill: rgb(243,204,109); fill-rule: evenodd; opacity: 1;" transform=" translate(-5981.0941, -5488.2907)" d="M 5707.36 4672.56 c -43.14 26.28 -72.86 -3.06 -107.76 -26.84 c -46.3 51.85 -219.7 26.97 -350.8 26.97 c -39.99 171.65 -62.23 1515.71 0 1645.41 c 144.95 69.55 723.64 26.97 944.09 26.97 c 675.48 0 500.58 116.96 544.81 -458.56 c -85.61 -772.5 253.98 -1368.84 -393.44 -1202.04 c -89.39 -11.25 -51.85 -11 -82.59 -29.55 c -56.67 -34.22 -7.39 -30.08 -14.84 -36.31 c -113.69 16.74 -65.48 51.2 -241.25 55.59 c -96.14 2.41 -201.24 -1.34 -298.22 -1.65 z" stroke-linecap="round"/>
</g>
		<g transform="matrix(0.096 0 0 0.096 -57.2449 -109.2084)" id="_2921421995696">
<path style="stroke: none; stroke-width: 1; stroke-dasharray: none; stroke-linecap: butt; stroke-dashoffset: 0; stroke-linejoin: miter; stroke-miterlimit: 4; is-custom-font: none; font-file-url: none; fill: rgb(69,95,168); fill-rule: evenodd; opacity: 1;" transform=" translate(-4903.6991, -3112.4124)" d="M 4625.67 1921.36 c -155.21 283.61 -129.58 518.67 -114.95 872.87 l -427.35 64.82 c -27.75 180.81 75.59 534.43 101.28 749.37 l 99.96 520.52 c 47.95 345.86 185.31 147.37 667.49 110.4 c 72.09 -31.88 640.63 -133.1 762.54 -133.1 c 33.61 -115.37 0.13 -148.8 -28.43 -269.74 c -42.13 -57.36 -41.24 -34.79 -73.61 -65.54 c -46.37 -44.07 -36.24 -36.46 -73 -90.26 c -48.82 -71.48 -95.15 -142.6 -155.93 -209.84 c -121.21 -129.98 -223.81 -295.37 -341.11 -426.25 c -204.05 -227.7 -256.07 -299.69 -474.97 -267.95 c -15.84 -325.35 -25.96 -614.31 138.53 -828.32 l -25.47 -53 l -54.99 26.03 z" stroke-linecap="round"/>
</g>
		<g transform="matrix(0.096 0 0 0.096 -146.2128 -142.7962)" id="_2921421995696">
<path style="stroke: none; stroke-width: 1; stroke-dasharray: none; stroke-linecap: butt; stroke-dashoffset: 0; stroke-linejoin: miter; stroke-miterlimit: 4; is-custom-font: none; font-file-url: none; fill: rgb(240,229,216); fill-rule: evenodd; opacity: 1;" transform=" translate(-3976.95, -2762.54)" d="M 3475.02 1975.31 c 3.71 184.96 -66.97 67.43 -108.93 390.87 c -20.22 155.9 -23.02 312.26 -37.86 455.8 c 92.19 24.74 32.7 17.8 89.48 -10.48 c 48.8 -82.07 31.93 -78.09 158.72 -80.92 c 22.09 83.3 -7.63 16.41 33.18 80.92 c 93.33 87.5 61.33 198.52 60.42 350.62 c -0.82 137.54 -0.69 275.56 0.59 413.09 l 514.03 33.22 c -25.69 -214.95 -129.04 -568.56 -101.28 -749.37 l 427.35 -64.82 c -14.63 -354.2 -40.26 -589.26 114.95 -872.87 l -293.97 -4.72 c -83.28 47.79 -214.91 92.63 -310.55 4.72 c -272.88 0 -332.54 -2.29 -546.13 53.95 z" stroke-linecap="round"/>
</g>
		<g transform="matrix(0.096 0 0 0.096 -212.8481 -105.5054)" id="_2921421995696">
<path style="stroke: none; stroke-width: 1; stroke-dasharray: none; stroke-linecap: butt; stroke-dashoffset: 0; stroke-linejoin: miter; stroke-miterlimit: 4; is-custom-font: none; font-file-url: none; fill: rgb(249,181,163); fill-rule: evenodd; opacity: 1;" transform=" translate(-3282.832, -3150.985)" d="M 3316.99 2083.2 l -113.75 748.6 l -273.11 8.8 c -24.23 158.26 32.48 408.39 -28.04 532.27 c 0 216.94 -41.56 779.33 26.98 922.19 c 98.48 47.25 290.79 22.2 431.58 31.61 c 89.65 -40.06 175.31 -21.48 299.83 -32 l 10.15 -719.47 c -1.28 -137.53 -1.41 -275.56 -0.59 -413.09 c 0.91 -152.1 32.91 -263.12 -60.42 -350.62 c -124.29 23.65 -48.15 3.36 -191.91 0 c -56.78 28.29 2.72 35.22 -89.48 10.48 c 14.84 -143.54 17.63 -299.9 37.86 -455.8 c 41.95 -323.43 112.63 -205.91 108.93 -390.87 c -136.48 13.53 -45.67 2.93 -158.02 107.89 z" stroke-linecap="round"/>
</g>
		<g transform="matrix(0.096 0 0 0.096 138.5199 94.957)" id="_2921421995696">
<path style="stroke: none; stroke-width: 1; stroke-dasharray: none; stroke-linecap: butt; stroke-dashoffset: 0; stroke-linejoin: miter; stroke-miterlimit: 4; is-custom-font: none; font-file-url: none; fill: rgb(254,107,56); fill-rule: evenodd; opacity: 1;" transform=" translate(-6942.915, -5239.135)" d="M 6362.78 4537.82 l -18.52 146.64 c 647.43 -166.8 307.83 429.54 393.44 1202.04 c 50.37 69.44 120.88 196.91 183.48 242.77 c 190.83 -44.45 519.79 -296.82 620.39 -323.69 c -12.49 -150.09 -189.91 -398.57 -275.48 -533.72 l -506.76 -922.86 c -198.61 16.53 -246.13 147.94 -396.56 188.82 z" stroke-linecap="round"/>
</g>
		<g transform="matrix(0.096 0 0 0.096 -37.7034 -147.8799)" id="_2921421995696">
<path style="stroke: none; stroke-width: 1; stroke-dasharray: none; stroke-linecap: butt; stroke-dashoffset: 0; stroke-linejoin: miter; stroke-miterlimit: 4; is-custom-font: none; font-file-url: none; fill: rgb(240,229,216); fill-rule: evenodd; opacity: 1;" transform=" translate(-5107.256, -2709.585)" d="M 5383.67 3470.85 c 46.32 -21.59 103.93 -32.6 146.3 -53.53 c 61.58 -30.43 66.02 -55.32 125.22 -93.33 c -17.09 -152.34 -93.02 -229.8 -153.06 -361.51 c -56.25 -123.41 -145.82 -225.28 -167.49 -339.81 c -75.95 -49.56 -84.88 -110.3 -139.64 -188.99 c -42.59 -61.21 -91.5 -121.26 -138.67 -185 c -119.89 -161.98 -182.34 -195.97 -350.22 -300.36 c -164.49 214.01 -154.37 502.98 -138.53 828.32 c 218.9 -31.74 270.92 40.26 474.97 267.95 c 117.29 130.87 219.89 296.27 341.11 426.25 z" stroke-linecap="round"/>
</g>
		<g transform="matrix(0.096 0 0 0.096 -418.2974 122.0266)" id="_2921421995696">
<path style="stroke: none; stroke-width: 1; stroke-dasharray: none; stroke-linecap: butt; stroke-dashoffset: 0; stroke-linejoin: miter; stroke-miterlimit: 4; is-custom-font: none; font-file-url: none; fill: rgb(240,229,216); fill-rule: evenodd; opacity: 1;" transform=" translate(-1142.735, -5521.11)" d="M 1418.53 6396.51 c 88.35 -207.73 -52.76 -1503.65 41.84 -1723.83 c -94.74 -9.71 -76.34 -26.97 -203.69 -26.97 l -431.58 1591.46 l 593.42 159.34 z" stroke-linecap="round"/>
</g>
		<g transform="matrix(0.096 0 0 0.096 -270.8976 83.5719)" id="_2921421995696">
<path style="stroke: none; stroke-width: 1; stroke-dasharray: none; stroke-linecap: butt; stroke-dashoffset: 0; stroke-linejoin: miter; stroke-miterlimit: 4; is-custom-font: none; font-file-url: none; fill: rgb(69,95,168); fill-rule: evenodd; opacity: 1;" transform=" translate(-2678.15, -5120.54)" d="M 1931.04 4642.53 c 151.57 47.24 407.18 21.53 593.42 20.94 c 880.67 -2.75 619.15 -162.96 642.19 1170.78 l 32.15 165.72 c 115 -9.2 136.45 -14.9 226.47 -32.54 l -70.19 -1456.08 c -32.3 -46.06 46.63 -22.09 -75.36 -46.13 c -80.82 21.69 -244.33 30.03 -304.72 37.7 c -101.17 12.85 -236.87 33.14 -315.69 34.9 c -3.78 -170.2 -62.65 -218.98 -188.81 -282.87 l -271.65 -13.84 c -92.19 46.11 -122.64 32.63 -195.72 126.06 c -52.81 67.52 -69.68 171.63 -72.1 275.37 z" stroke-linecap="round"/>
</g>
		<g transform="matrix(0.096 0 0 0.096 -257.9698 -119.9692)" id="_2921421995696">
<path style="stroke: none; stroke-width: 1; stroke-dasharray: none; stroke-linecap: butt; stroke-dashoffset: 0; stroke-linejoin: miter; stroke-miterlimit: 4; is-custom-font: none; font-file-url: none; fill: rgb(240,229,216); fill-rule: evenodd; opacity: 1;" transform=" translate(-2812.815, -3000.32)" d="M 2308.66 3854.42 c 33.03 6.7 36.87 2.13 69.6 15.55 c 99.06 40.65 37.34 12.61 79.27 47.46 c 44.25 -49.79 48.36 -64.22 104.35 -123.91 l 224.39 -261.55 c 63.65 -79.22 38.37 -92.55 115.81 -159.09 c 60.52 -123.88 3.81 -374.01 28.04 -532.27 l 273.11 -8.8 l 113.75 -748.6 c -386.55 323.1 -1008.33 1409.5 -1008.33 1771.22 z" stroke-linecap="round"/>
</g>
		<g transform="matrix(0.096 0 0 0.096 -124.4364 -261.5162)" id="_2921421995696">
<path style="stroke: none; stroke-width: 1; stroke-dasharray: none; stroke-linecap: butt; stroke-dashoffset: 0; stroke-linejoin: miter; stroke-miterlimit: 4; is-custom-font: none; font-file-url: none; fill: rgb(242,164,138); fill-rule: evenodd; opacity: 1;" transform=" translate(-4203.7879, -1525.8733)" d="M 3959.19 1651.62 c 80.91 110.62 31.96 111.06 61.96 269.74 c 95.63 87.91 227.26 43.07 310.55 -4.72 c -14.7 -163.6 -51.1 -96.11 57.44 -233.83 c 63.74 -80.88 100.53 -136.86 105.22 -273.95 c -10.75 -97.49 -2.51 -172.37 -42.76 -254.5 c -19.22 -39.25 -16.59 -28.91 -36.09 -49.78 l -364.35 -24.33 l -117.39 282.29 c -53.67 109.09 13.34 166.49 25.41 289.08 z" stroke-linecap="round"/>
</g>
		<g transform="matrix(0.096 0 0 0.096 -128.9871 -292.1703)" id="_2921421995696">
<path style="stroke: none; stroke-width: 1; stroke-dasharray: none; stroke-linecap: butt; stroke-dashoffset: 0; stroke-linejoin: miter; stroke-miterlimit: 4; is-custom-font: none; font-file-url: none; fill: rgb(206,206,206); fill-rule: evenodd; opacity: 1;" transform=" translate(-4156.385, -1206.56)" d="M 3959.19 1651.62 c -12.07 -122.59 -79.09 -180 -25.41 -289.08 l 117.39 -282.29 l 364.35 24.33 c 19.49 20.87 16.86 10.53 36.09 49.78 c 40.25 82.13 32 157.01 42.76 254.5 l 51.6 -29.4 c 1.54 -161.36 28.51 -213.7 28.51 -348.23 c -207.92 -139.23 -71.04 -53.57 -215.79 -269.74 c -50.63 0 -424.89 53.73 -468.68 97.77 l -151.72 441.7 c 31.77 118.97 1.35 -2.52 46.5 88.37 c 105.5 212.36 -40.68 160.02 174.41 262.3 z" stroke-linecap="round"/>
</g>
		<g transform="matrix(0.096 0 0 0.096 13.669 -91.7348)" id="_2921421995696">
<path style="stroke: none; stroke-width: 1; stroke-dasharray: none; stroke-linecap: butt; stroke-dashoffset: 0; stroke-linejoin: miter; stroke-miterlimit: 4; is-custom-font: none; font-file-url: none; fill: rgb(69,95,168); fill-rule: evenodd; opacity: 1;" transform=" translate(-5642.385, -3294.43)" d="M 5334.65 2622.68 c 21.67 114.54 111.24 216.4 167.49 339.81 c 60.04 131.71 135.97 209.17 153.06 361.51 c 91.54 70.19 100.18 210.23 160.05 316.85 c 43.19 76.23 32.31 89.94 61.9 191.11 c 20.85 71.33 48.91 142.24 72.97 188.16 c 0 -235.16 -82.84 -506.46 -123.48 -734.47 c -35.77 -200.67 -83.72 -598.73 -146.25 -716.91 c -111.03 9.24 -230.61 51.18 -345.74 53.95 z" stroke-linecap="round"/>
</g>
		<g transform="matrix(0.096 0 0 0.096 46.1942 -8.3865)" id="_2921421995696">
<path style="stroke: none; stroke-width: 1; stroke-dasharray: none; stroke-linecap: butt; stroke-dashoffset: 0; stroke-linejoin: miter; stroke-miterlimit: 4; is-custom-font: none; font-file-url: none; fill: rgb(178,137,122); fill-rule: evenodd; opacity: 1;" transform=" translate(-5981.19, -4162.64)" d="M 5686.21 3836.5 c 28.56 120.94 62.03 154.37 28.43 269.74 c 20.9 93.37 0.94 63.02 -7.28 161.84 c 86.27 -57.77 18.89 -44.29 134.87 -53.94 l 0 53.94 c -239.98 55.91 -184.52 227.17 -242.63 377.63 c 34.9 23.78 64.62 53.13 107.76 26.84 c 0 -186.59 -16.24 -308.74 161.84 -323.56 c -9.02 108.41 -44 97.13 0 188.82 c 108.41 -28.95 107.89 -79.05 107.89 -215.8 c 234.26 0 269.74 69.53 269.74 296.58 c 7.45 6.22 -41.83 2.09 14.84 36.31 c 30.73 18.55 -6.8 18.3 82.59 29.55 l 18.52 -146.64 c -38.17 -46.34 -2.9 2.81 -30.44 -56.93 c -82.92 -179.86 -89.44 -212.82 -355.24 -212.82 c 0 -136.06 -24.37 -122.1 -26.97 -247.96 c -24.06 -45.92 -52.11 -116.82 -72.97 -188.16 c -29.59 -101.17 -18.71 -114.87 -61.9 -191.11 l 30.67 167.89 l -159.72 27.76 z" stroke-linecap="round"/>
</g>
		<g transform="matrix(0.096 0 0 0.096 -193.7256 374.0505)" id="_2921421995696">
<path style="stroke: none; stroke-width: 1; stroke-dasharray: none; stroke-linecap: butt; stroke-dashoffset: 0; stroke-linejoin: miter; stroke-miterlimit: 4; is-custom-font: none; font-file-url: none; fill: rgb(206,206,206); fill-rule: evenodd; opacity: 1;" transform=" translate(-3482.025, -8146.3592)" d="M 3819.2 8013.72 c -159.93 26.76 -116.3 39.15 -242.76 -23.91 c -203.98 110.87 -391.67 147.87 -431.59 297.37 c 134.72 64.64 530.99 -85.98 674.35 -161.84 l 0 -111.61 z" stroke-linecap="round"/>
</g>
		<g transform="matrix(0.096 0 0 0.096 -16.3464 374.0895)" id="_2921421995696">
<path style="stroke: none; stroke-width: 1; stroke-dasharray: none; stroke-linecap: butt; stroke-dashoffset: 0; stroke-linejoin: miter; stroke-miterlimit: 4; is-custom-font: none; font-file-url: none; fill: rgb(206,206,206); fill-rule: evenodd; opacity: 1;" transform=" translate(-5329.725, -8146.7651)" d="M 5006.04 8090.14 c 13.36 177.28 77.13 133.99 253.43 159.39 c 125.44 18.07 263.33 10.67 393.94 10.67 c -41.21 -154.35 -197.88 -121.75 -431.58 -228.37 c -119 83.37 -43.57 80.32 -215.79 58.31 z" stroke-linecap="round"/>
</g>
		<g transform="matrix(0.096 0 0 0.096 -324.7964 200.6042)" id="_2921421995696">
<path style="stroke: none; stroke-width: 1; stroke-dasharray: none; stroke-linecap: butt; stroke-dashoffset: 0; stroke-linejoin: miter; stroke-miterlimit: 4; is-custom-font: none; font-file-url: none; fill: rgb(255,253,250); fill-rule: evenodd; opacity: 1;" transform=" translate(-2116.705, -6339.6274)" d="M 1941.29 6521.34 c 143.39 -9.88 97.8 -39.25 177.28 -37.35 c 77.5 1.85 22.81 31.24 173.55 36.63 c -80.64 -414.25 -232.85 -548.61 -350.83 0.71 z" stroke-linecap="round"/>
</g>
		<g transform="matrix(0.096 0 0 0.096 -254.2848 200.8117)" id="_2921421995696">
<path style="stroke: none; stroke-width: 1; stroke-dasharray: none; stroke-linecap: butt; stroke-dashoffset: 0; stroke-linejoin: miter; stroke-miterlimit: 4; is-custom-font: none; font-file-url: none; fill: rgb(255,253,250); fill-rule: evenodd; opacity: 1;" transform=" translate(-2851.2, -6341.7884)" d="M 2713.84 6520.54 c 54.3 1.07 121.74 6.26 162.78 4.31 c 125.41 -5.97 68.27 13.44 111.94 -44.92 c -75.46 -119.94 -52.5 16.65 -154.76 -80.92 l 98.09 -53.95 c -54.35 -101.52 9.83 -3.67 -100.96 -75.54 c 146.94 -25.82 133.69 27.4 148.34 -86.3 c -69.52 -36.71 -166.27 -23 -261.32 -19.61 l -4.1 356.93 z" stroke-linecap="round"/>
</g>
		<g transform="matrix(0.096 0 0 0.096 -360.4569 200.8529)" id="_2921421995696">
<path style="stroke: none; stroke-width: 1; stroke-dasharray: none; stroke-linecap: butt; stroke-dashoffset: 0; stroke-linejoin: miter; stroke-miterlimit: 4; is-custom-font: none; font-file-url: none; fill: rgb(255,253,250); fill-rule: evenodd; opacity: 1;" transform=" translate(-1745.24, -6342.2174)" d="M 1756.4 6406.96 c -122.15 44.74 4.96 -68.92 -148.72 17.35 c 29.15 144.06 143.76 119.09 267.28 58.84 l 7.84 -147.18 l -103.52 -61.53 c 24.11 -8.61 10.46 2.59 39.15 -12.56 c 51.37 -27.14 13.96 23.24 52.87 -51.7 c -123.38 -135.36 -442.1 -11.51 -114.89 196.76 z" stroke-linecap="round"/>
</g>
		<g transform="matrix(0.096 0 0 0.096 -303.8707 -18.7507)" id="_2921421995696">
<path style="stroke: none; stroke-width: 1; stroke-dasharray: none; stroke-linecap: butt; stroke-dashoffset: 0; stroke-linejoin: miter; stroke-miterlimit: 4; is-custom-font: none; font-file-url: none; fill: rgb(242,164,138); fill-rule: evenodd; opacity: 1;" transform=" translate(-2334.68, -4054.68)" d="M 2198.86 4241.11 l 271.65 13.84 c -69.25 -103.97 -74.97 -208.73 -12.98 -337.53 c -41.93 -34.85 19.79 -6.81 -79.27 -47.46 c -32.72 -13.42 -36.57 -8.85 -69.6 -15.55 c -27.91 49.05 -11.85 13.64 -37.53 79.27 c -10.5 26.83 -25.03 75.16 -32.78 102.42 c -23.04 81.03 -35.13 118.36 -39.5 205 z" stroke-linecap="round"/>
</g>
		<g transform="matrix(0.096 0 0 0.096 -39.6514 353.3508)" id="_2921421995696">
<path style="stroke: none; stroke-width: 1; stroke-dasharray: none; stroke-linecap: butt; stroke-dashoffset: 0; stroke-linejoin: miter; stroke-miterlimit: 4; is-custom-font: none; font-file-url: none; fill: rgb(242,164,138); fill-rule: evenodd; opacity: 1;" transform=" translate(-5086.965, -7930.7372)" d="M 5006.04 8090.14 c 172.22 22.01 96.79 25.06 215.79 -58.31 c -61.07 -63.62 -78.5 -143.41 -80.92 -265.54 l -188.81 -8.21 c 21.47 119.3 53.94 187.59 53.94 332.06 z" stroke-linecap="round"/>
</g>
		<g transform="matrix(0.096 0 0 0.096 -173.0102 349.1913)" id="_2921421995696">
<path style="stroke: none; stroke-width: 1; stroke-dasharray: none; stroke-linecap: butt; stroke-dashoffset: 0; stroke-linejoin: miter; stroke-miterlimit: 4; is-custom-font: none; font-file-url: none; fill: rgb(242,164,138); fill-rule: evenodd; opacity: 1;" transform=" translate(-3697.81, -7887.409)" d="M 3576.43 7989.81 c 126.46 63.06 82.83 50.67 242.76 23.91 c -51.57 -98.98 -2.43 -152.35 0 -274.49 l -215.79 1.48 c 0 120.21 14.44 164 -26.97 249.1 z" stroke-linecap="round"/>
</g>
		<g transform="matrix(0.096 0 0 0.096 -288.1083 201.2362)" id="_2921421995696">
<path style="stroke: none; stroke-width: 1; stroke-dasharray: none; stroke-linecap: butt; stroke-dashoffset: 0; stroke-linejoin: miter; stroke-miterlimit: 4; is-custom-font: none; font-file-url: none; fill: rgb(255,253,250); fill-rule: evenodd; opacity: 1;" transform=" translate(-2498.8721, -6346.2106)" d="M 2378.33 6518 c 103.63 7.21 206.39 32.95 258.41 -38.07 c -26.15 -60.1 20.2 -48.52 -153.47 -66.15 c -26.8 -280.07 47.56 -241.56 -93.69 -249.85 c -43.01 79.75 -29.42 252.99 -11.25 354.07 z" stroke-linecap="round"/>
</g>
</g>
</g>
</svg>